<?xml version="1.0" encoding="UTF-8"?>
<svg version="1.1" xmlns="http://www.w3.org/2000/svg" width="225" height="225">
<path d="M0 0 C74.25 0 148.5 0 225 0 C225 74.25 225 148.5 225 225 C150.75 225 76.5 225 0 225 C0 150.75 0 76.5 0 0 Z " fill="#FEFEFE" transform="translate(0,0)"/>
<path d="M0 0 C3.73431108 1.86312281 6.29331341 4.55517625 8.15234375 8.28125 C9.81561637 13.4987778 9.42389284 18.52812976 7.68359375 23.65234375 C4.80503659 27.77827567 1.67496422 30.71772026 -3.19140625 32.33984375 C-8.1600094 32.86150432 -12.04659604 32.91224885 -16.56640625 30.65234375 C-20.25193123 27.40557175 -23.91619988 24.06032643 -24.4296875 18.984375 C-24.6006654 12.46021815 -24.23343856 8.55193805 -20.19140625 3.33984375 C-14.73670016 -1.97849469 -7.07941297 -2.13265738 0 0 Z " fill="#287A52" transform="translate(175.19140625,125.66015625)"/>
<path d="M0 0 C3.56234428 -0.08741124 7.12441108 -0.14052896 10.6875 -0.1875 C11.69490234 -0.21263672 12.70230469 -0.23777344 13.74023438 -0.26367188 C23.01082132 -0.35545986 23.01082132 -0.35545986 27 3 C29 5 29 5 29.375 7.75 C28.61342287 14.35033509 23.49440839 18.79932628 18.9375 23.25 C18.14375977 24.04277344 18.14375977 24.04277344 17.33398438 24.8515625 C11.28010712 30.83707728 11.28010712 30.83707728 6.5625 31.4375 C3 31 3 31 0.625 28.625 C-1.62072149 24.99729606 -2.12202796 23.23286443 -2.09765625 18.9921875 C-2.09443359 18.00605469 -2.09121094 17.01992187 -2.08789062 16.00390625 C-2.07951172 14.97136719 -2.07113281 13.93882813 -2.0625 12.875 C-2.05798828 11.83472656 -2.05347656 10.79445313 -2.04882812 9.72265625 C-2.03701952 7.14838038 -2.02055075 4.57421854 -2 2 C0.31 3.65 2.62 5.3 5 7 C3.35 4.69 1.7 2.38 0 0 Z " fill="#267A51" transform="translate(116,82)"/>
<path d="M0 0 C2.74937645 2.74937645 4.91329238 5.2841214 5.11352539 9.24658203 C5.10828857 10.15778809 5.10305176 11.06899414 5.09765625 12.0078125 C5.09443359 12.99394531 5.09121094 13.98007812 5.08789062 14.99609375 C5.07951172 16.02863281 5.07113281 17.06117187 5.0625 18.125 C5.05798828 19.16527344 5.05347656 20.20554687 5.04882812 21.27734375 C5.03701952 23.85161962 5.02055075 26.42578146 5 29 C2.69 27.35 0.38 25.7 -2 24 C0.475 27.465 0.475 27.465 3 31 C-0.54138618 31.11681812 -4.0822724 31.187455 -7.625 31.25 C-8.62402344 31.28351563 -9.62304688 31.31703125 -10.65234375 31.3515625 C-16.79748696 31.43295513 -20.30856027 31.08357877 -25 27 C-26 26 -26 26 -26.5 22.9375 C-25.78201322 17.28335414 -22.94660059 14.91179812 -19 11 C-17.70255859 9.66582031 -17.70255859 9.66582031 -16.37890625 8.3046875 C-7.46960145 -0.77271739 -7.46960145 -0.77271739 0 0 Z " fill="#257A50" transform="translate(106,48)"/>
<path d="M0 0 C5.56365343 0.80762711 8.01304955 3.66505368 11.875 7.5625 C12.679375 8.34238281 13.48375 9.12226562 14.3125 9.92578125 C22.69288187 18.13157183 22.69288187 18.13157183 23.3125 23 C22.875 26.5625 22.875 26.5625 20.5625 28.9375 C16.86798335 31.17139379 14.22228662 31.68581689 9.98828125 31.66015625 C9.05048828 31.65693359 8.11269531 31.65371094 7.14648438 31.65039062 C6.17001953 31.64201172 5.19355469 31.63363281 4.1875 31.625 C3.19943359 31.62048828 2.21136719 31.61597656 1.19335938 31.61132812 C-1.24615474 31.59954303 -3.68554689 31.58309011 -6.125 31.5625 C-4.475 29.2525 -2.825 26.9425 -1.125 24.5625 C-4.59 27.0375 -4.59 27.0375 -8.125 29.5625 C-8.21241124 26.00015572 -8.26552896 22.43808892 -8.3125 18.875 C-8.33763672 17.86759766 -8.36277344 16.86019531 -8.38867188 15.82226562 C-8.48045986 6.55167868 -8.48045986 6.55167868 -5.125 2.5625 C-3.125 0.5625 -3.125 0.5625 0 0 Z " fill="#257A50" transform="translate(122.125,47.4375)"/>
<path d="M0 0 C0.87914063 0.00451172 1.75828125 0.00902344 2.6640625 0.01367188 C4.81773803 0.02537663 6.97137817 0.04330931 9.125 0.0625 C8.70347656 0.53300781 8.28195313 1.00351563 7.84765625 1.48828125 C7.29980469 2.11089844 6.75195312 2.73351562 6.1875 3.375 C5.36958984 4.29732422 5.36958984 4.29732422 4.53515625 5.23828125 C2.92418441 7.11491958 2.92418441 7.11491958 2.125 10.0625 C2.8675 9.299375 3.61 8.53625 4.375 7.75 C6.55890862 5.61572567 8.6714828 3.85021232 11.125 2.0625 C11.24181812 5.60388618 11.312455 9.1447724 11.375 12.6875 C11.42527344 14.18603516 11.42527344 14.18603516 11.4765625 15.71484375 C11.55795513 21.85998696 11.20857877 25.37106027 7.125 30.0625 C6.125 31.0625 6.125 31.0625 3.0625 31.5625 C-2.57719171 30.84634867 -4.97567958 27.99765976 -8.875 24.0625 C-9.679375 23.28261719 -10.48375 22.50273438 -11.3125 21.69921875 C-19.72201018 13.4649067 -19.72201018 13.4649067 -20.25 8.625 C-19.875 5.0625 -19.875 5.0625 -18.25 2.6875 C-12.98833677 -0.91258537 -6.14168773 -0.06012194 0 0 Z " fill="#F17933" transform="translate(99.875,81.9375)"/>
<path d="M0 0 C4.51199709 2.26576477 7.18934823 5.6631585 8.8046875 10.34375 C9.1171875 14.21875 9.1171875 14.21875 8.8046875 17.34375 C7.8046875 18.34375 7.8046875 18.34375 5.30444336 18.45727539 C4.22042236 18.45203857 3.13640137 18.44680176 2.01953125 18.44140625 C0.84970703 18.43818359 -0.32011719 18.43496094 -1.52539062 18.43164062 C-2.75708984 18.42326172 -3.98878906 18.41488281 -5.2578125 18.40625 C-7.11116211 18.39948242 -7.11116211 18.39948242 -9.00195312 18.39257812 C-12.06645367 18.38074608 -15.13085971 18.36426173 -18.1953125 18.34375 C-15.49215937 23.119956 -15.49215937 23.119956 -11.1953125 26.34375 C-7.01455614 26.64780501 -3.26299399 26.3298546 0.8046875 25.34375 C1.1346875 26.99375 1.4646875 28.64375 1.8046875 30.34375 C-2.98444179 33.15427189 -7.78941181 32.97927679 -13.1953125 32.34375 C-17.64677501 30.15848658 -20.38416395 27.4042979 -23.1953125 23.34375 C-24.90148838 18.22522237 -25.44140085 12.21854305 -23.25390625 7.171875 C-17.69856681 -0.97827816 -9.34075928 -2.79225544 0 0 Z " fill="#2C7B55" transform="translate(111.1953125,125.65625)"/>
<path d="M0 0 C4.16507424 1.7585869 6.20882468 3.85201505 8 8 C8.53348798 12.97922113 8.16955197 16.06538376 5 20 C1.06538376 23.16955197 -2.02077887 23.53348798 -7 23 C-11.14798495 21.20882468 -13.2414131 19.16507424 -15 15 C-15.83389634 8.43306631 -15.83389634 8.43306631 -13.9453125 5.1875 C-9.79265666 0.07653896 -6.40217221 -0.67715283 0 0 Z " fill="#F8FBF9" transform="translate(171,130)"/>
<path d="M0 0 C10.56 0 21.12 0 32 0 C32 1.32 32 2.64 32 4 C31 5 31 5 28.27734375 5.09765625 C26.62412109 5.08025391 26.62412109 5.08025391 24.9375 5.0625 C23.83277344 5.05347656 22.72804688 5.04445313 21.58984375 5.03515625 C20.73519531 5.02355469 19.88054688 5.01195313 19 5 C19.01047363 6.14065918 19.02094727 7.28131836 19.03173828 8.45654297 C19.06787717 12.67949294 19.09087812 16.90242919 19.10986328 21.12548828 C19.11993484 22.95493873 19.13359276 24.78437303 19.15087891 26.61376953 C19.17507677 29.23994934 19.18647132 31.86591675 19.1953125 34.4921875 C19.20563507 35.31306854 19.21595764 36.13394958 19.22659302 36.97970581 C19.22699184 38.98789142 19.1224954 40.99555382 19 43 C18.34 43.66 17.68 44.32 17 45 C16.01 45 15.02 45 14 45 C12.36054037 41.72108075 12.87969822 38.09386466 12.90234375 34.4921875 C12.9037587 33.65156769 12.90517365 32.81094788 12.90663147 31.94485474 C12.91223763 29.25486725 12.92479114 26.56496241 12.9375 23.875 C12.94251421 22.05338662 12.94707725 20.23177193 12.95117188 18.41015625 C12.96220906 13.94007223 12.9794778 9.47005014 13 5 C9.04 5 5.08 5 1 5 C0.67 3.35 0.34 1.7 0 0 Z " fill="#33805B" transform="translate(41,113)"/>
<path d="M0 0 C1.86621094 0.22705078 1.86621094 0.22705078 4 1 C5.18847656 2.90185547 5.18847656 2.90185547 6.140625 5.3671875 C6.48867187 6.25277344 6.83671875 7.13835937 7.1953125 8.05078125 C7.54335937 8.98277344 7.89140625 9.91476563 8.25 10.875 C8.79527344 12.26138672 8.79527344 12.26138672 9.3515625 13.67578125 C12 20.53583177 12 20.53583177 12 24 C12.66 24 13.32 24 14 24 C14.14501953 23.03126953 14.14501953 23.03126953 14.29296875 22.04296875 C15.24198888 17.95851195 16.74227248 14.1936284 18.3125 10.3125 C18.60833984 9.54099609 18.90417969 8.76949219 19.20898438 7.97460938 C19.50740234 7.23662109 19.80582031 6.49863281 20.11328125 5.73828125 C20.51220581 4.73341675 20.51220581 4.73341675 20.91918945 3.70825195 C22.2824244 1.55362016 23.67288048 0.94757143 26 0 C26.33 0.33 26.66 0.66 27 1 C26.64965211 8.06701749 23.78277488 14.37010501 21.1875 20.875 C20.74857422 22.02742188 20.30964844 23.17984375 19.85742188 24.3671875 C19.42365234 25.4603125 18.98988281 26.5534375 18.54296875 27.6796875 C18.15133545 28.67726074 17.75970215 29.67483398 17.35620117 30.70263672 C16 33 16 33 13.84106445 33.83251953 C13.23351318 33.88778809 12.62596191 33.94305664 12 34 C8.62058914 28.58311161 6.2293359 22.86916239 3.75 17 C3.27820313 15.91976562 2.80640625 14.83953125 2.3203125 13.7265625 C1.65902344 12.16035156 1.65902344 12.16035156 0.984375 10.5625 C0.57928711 9.61503906 0.17419922 8.66757813 -0.24316406 7.69140625 C-1.08580506 4.69486615 -0.85770424 2.95834138 0 0 Z " fill="#2A7A53" transform="translate(123,124)"/>
<path d="M0 0 C0.99 0.33 1.98 0.66 3 1 C3.495 9.415 3.495 9.415 4 18 C6.97 15.525 6.97 15.525 10 13 C10 13.99 10 14.98 10 16 C8.68 17.32 7.36 18.64 6 20 C11.94 20.33 17.88 20.66 24 21 C24 21.99 24 22.98 24 24 C18.06 24.33 12.12 24.66 6 25 C7.32 26.32 8.64 27.64 10 29 C10 29.66 10 30.32 10 31 C7.53199953 29.84826645 5.95216435 28.95216435 4 27 C3.67 32.61 3.34 38.22 3 44 C1.515 43.505 1.515 43.505 0 43 C-0.33 37.72 -0.66 32.44 -1 27 C-6.7395857 31.30161619 -6.7395857 31.30161619 -9 35 C-9.66 34.67 -10.32 34.34 -11 34 C-7.04 29.545 -7.04 29.545 -3 25 C-10.26 25 -17.52 25 -25 25 C-20.5 20.5 -20.5 20.5 -16.671875 20.390625 C-15.87265625 20.35839844 -15.0734375 20.32617188 -14.25 20.29296875 C-13.0125 20.27169922 -13.0125 20.27169922 -11.75 20.25 C-10.90953125 20.22035156 -10.0690625 20.19070312 -9.203125 20.16015625 C-7.1359285 20.08968364 -5.06795967 20.04255061 -3 20 C-4.65 18.02 -6.3 16.04 -8 14 C-7.01 14 -6.02 14 -5 14 C-3.68 15.32 -2.36 16.64 -1 18 C-0.67 12.06 -0.34 6.12 0 0 Z " fill="#C1CAB8" transform="translate(111,58)"/>
<path d="M0 0 C1.22589844 0.01353516 1.22589844 0.01353516 2.4765625 0.02734375 C3.41628906 0.04474609 3.41628906 0.04474609 4.375 0.0625 C4.045 1.7125 3.715 3.3625 3.375 5.0625 C1.7971875 5.1553125 1.7971875 5.1553125 0.1875 5.25 C-4.28837256 6.20387448 -5.74782867 7.59296987 -8.625 11.0625 C-9.77154482 13.35558963 -9.82229117 14.86159656 -9.94140625 17.4140625 C-9.98330078 18.26484375 -10.02519531 19.115625 -10.06835938 19.9921875 C-10.10767578 20.88164062 -10.14699219 21.77109375 -10.1875 22.6875 C-10.25227539 24.03328125 -10.25227539 24.03328125 -10.31835938 25.40625 C-10.42456861 27.62484283 -10.52661194 29.8435488 -10.625 32.0625 C-12.5625 32.625 -12.5625 32.625 -14.625 33.0625 C-16.97547676 30.71202324 -15.90595774 25.02712331 -15.9375 21.875 C-15.96650391 20.92818359 -15.99550781 19.98136719 -16.02539062 19.00585938 C-16.07849307 13.15233614 -15.62105182 9.6626908 -11.625 5.0625 C-7.6022229 1.51862493 -5.33529635 -0.07621852 0 0 Z " fill="#2A7A52" transform="translate(82.625,124.9375)"/>
<path d="M0 0 C2.65295523 1.39542136 3.92295636 2.715252 6 5 C6.33 6.32 6.66 7.64 7 9 C-0.26 9 -7.52 9 -15 9 C-14 4 -14 4 -12 1.6875 C-7.91181994 -0.61210128 -4.58929849 -0.94366946 0 0 Z " fill="#F7FCF9" transform="translate(108,130)"/>
<path d="M0 0 C1.32 0.33 2.64 0.66 4 1 C4.33 1.99 4.66 2.98 5 4 C5.33 2.68 5.66 1.36 6 0 C6.99 0 7.98 0 9 0 C9 3.96 9 7.92 9 12 C6 12 3 12 0 12 C0 8.04 0 4.08 0 0 Z " fill="#E38A51" transform="translate(97,165)"/>
<path d="M0 0 C1.98 0 3.96 0 6 0 C6.98248524 4.0527516 7.08159574 7.83861737 7 12 C6.34 12 5.68 12 5 12 C5 10.35 5 8.7 5 7 C4.34 7 3.68 7 3 7 C3 8.65 3 10.3 3 12 C2.01 12 1.02 12 0 12 C0 8.04 0 4.08 0 0 Z " fill="#E79864" transform="translate(86,165)"/>
<path d="M0 0 C1.67542976 0.28604898 3.34385343 0.61781233 5 1 C5.02688151 2.64574566 5.04634123 4.29161413 5.0625 5.9375 C5.07410156 6.85402344 5.08570313 7.77054688 5.09765625 8.71484375 C5 11 5 11 4 12 C2.33382885 12.04063832 0.66611905 12.042721 -1 12 C-1.02687279 10.18757948 -1.04633715 8.37504767 -1.0625 6.5625 C-1.07410156 5.55316406 -1.08570313 4.54382813 -1.09765625 3.50390625 C-1 1 -1 1 0 0 Z " fill="#E89E6D" transform="translate(165,165)"/>
<path d="M0 0 C1.65 0 3.3 0 5 0 C6 1 6 1 6.09765625 3.50390625 C6.08605469 4.51324219 6.07445313 5.52257812 6.0625 6.5625 C6.05347656 7.57441406 6.04445313 8.58632812 6.03515625 9.62890625 C6.02355469 10.41136719 6.01195313 11.19382813 6 12 C5.34 12 4.68 12 4 12 C4 10.35 4 8.7 4 7 C3.34 7 2.68 7 2 7 C2 8.65 2 10.3 2 12 C1.34 12 0.68 12 0 12 C0 8.04 0 4.08 0 0 Z " fill="#E38C53" transform="translate(121,165)"/>
<path d="M0 0 C0.66 0 1.32 0 2 0 C2 3.63 2 7.26 2 11 C2.66 11 3.32 11 4 11 C4 7.37 4 3.74 4 0 C4.99 0 5.98 0 7 0 C7.02687279 1.81242052 7.04633715 3.62495233 7.0625 5.4375 C7.07410156 6.44683594 7.08570313 7.45617187 7.09765625 8.49609375 C7 11 7 11 6 12 C3.5 12.125 3.5 12.125 1 12 C0 11 0 11 -0.09765625 8.49609375 C-0.08605469 7.48675781 -0.07445312 6.47742188 -0.0625 5.4375 C-0.05347656 4.42558594 -0.04445312 3.41367188 -0.03515625 2.37109375 C-0.02355469 1.58863281 -0.01195312 0.80617187 0 0 Z " fill="#E4925B" transform="translate(55,165)"/>
<path d="M0 0 C0.99 0 1.98 0 3 0 C3.66 3.96 4.32 7.92 5 12 C4.01 12 3.02 12 2 12 C2 11.34 2 10.68 2 10 C1.34 10 0.68 10 0 10 C0 10.66 0 11.32 0 12 C-0.66 12 -1.32 12 -2 12 C-1.85962479 10.18706911 -1.71255111 8.3746557 -1.5625 6.5625 C-1.48128906 5.55316406 -1.40007812 4.54382813 -1.31640625 3.50390625 C-1 1 -1 1 0 0 Z " fill="#E79865" transform="translate(144,165)"/>
<path d="M0 0 C1.98 0 3.96 0 6 0 C6 0.66 6 1.32 6 2 C5.01 2 4.02 2 3 2 C3 2.99 3 3.98 3 5 C3.99 5 4.98 5 6 5 C6 5.66 6 6.32 6 7 C5.01 7 4.02 7 3 7 C3 7.99 3 8.98 3 10 C3.99 10 4.98 10 6 10 C6 10.66 6 11.32 6 12 C4.02 12 2.04 12 0 12 C0 8.04 0 4.08 0 0 Z " fill="#E49763" transform="translate(76,165)"/>
<path d="M0 0 C2.0625 0.1875 2.0625 0.1875 4 1 C4.33 1.99 4.66 2.98 5 4 C4.34 4 3.68 4 3 4 C3 3.34 3 2.68 3 2 C2.34 2 1.68 2 1 2 C1 4.64 1 7.28 1 10 C1.66 10 2.32 10 3 10 C3 9.34 3 8.68 3 8 C3.66 8 4.32 8 5 8 C4.67 9.32 4.34 10.64 4 12 C2.33388095 12.042721 0.66617115 12.04063832 -1 12 C-2.58894072 10.41105928 -2.16998411 8.75198576 -2.1875 6.5625 C-2.20167969 5.75941406 -2.21585938 4.95632812 -2.23046875 4.12890625 C-2 2 -2 2 0 0 Z " fill="#E3925C" transform="translate(133,165)"/>
<path d="M0 0 C1.65 0 3.3 0 5 0 C6 1 6 1 6.0625 4.0625 C6.041875 5.031875 6.02125 6.00125 6 7 C4.68 7 3.36 7 2 7 C2 8.65 2 10.3 2 12 C1.34 12 0.68 12 0 12 C0 8.04 0 4.08 0 0 Z " fill="#E9A97A" transform="translate(66,165)"/>
<path d="M0 0 C2.125 0.375 2.125 0.375 4 1 C3.67 1.66 3.34 2.32 3 3 C2.34 2.67 1.68 2.34 1 2 C1.474375 2.7425 1.94875 3.485 2.4375 4.25 C3.77922664 6.61143888 4.61956417 8.33694922 5 11 C4 12 4 12 1.4375 12.0625 C0.633125 12.041875 -0.17125 12.02125 -1 12 C-1.33 11.01 -1.66 10.02 -2 9 C-1.01 9.33 -0.02 9.66 1 10 C0.690625 9.4225 0.38125 8.845 0.0625 8.25 C-0.9450856 6.11628933 -1.68819872 4.3385096 -2 2 C-1.34 1.34 -0.68 0.68 0 0 Z " fill="#E38C54" transform="translate(176,165)"/>
<path d="M0 0 C1.67542976 0.28604898 3.34385343 0.61781233 5 1 C5 1.99 5 2.98 5 4 C4.34 4 3.68 4 3 4 C3 3.34 3 2.68 3 2 C2.34 2 1.68 2 1 2 C1 2.99 1 3.98 1 5 C2.32 5.66 3.64 6.32 5 7 C4.67 8.65 4.34 10.3 4 12 C2.35 12 0.7 12 -1 12 C-1 11.01 -1 10.02 -1 9 C-0.01 9.33 0.98 9.66 2 10 C1.690625 9.443125 1.38125 8.88625 1.0625 8.3125 C-0.0663002 5.85569956 -0.6384857 3.67520583 -1 1 C-0.67 0.67 -0.34 0.34 0 0 Z " fill="#E1874F" transform="translate(46,165)"/>
<path d="M0 0 C0.66 0 1.32 0 2 0 C2 2.97 2 5.94 2 9 C2.99 9 3.98 9 5 9 C5 6.36 5 3.72 5 1 C5.33 1 5.66 1 6 1 C6 4.3 6 7.6 6 11 C4.02 11 2.04 11 0 11 C0 7.37 0 3.74 0 0 Z " fill="#E17938" transform="translate(153,166)"/>
<path d="M0 0 C1.65 0 3.3 0 5 0 C4.01 0.33 3.02 0.66 2 1 C2 1.99 2 2.98 2 4 C2.99 4 3.98 4 5 4 C5 4.66 5 5.32 5 6 C4.01 6 3.02 6 2 6 C2 7.32 2 8.64 2 10 C2.99 10.33 3.98 10.66 5 11 C3.35 11 1.7 11 0 11 C0 7.37 0 3.74 0 0 Z " fill="#E07D3F" transform="translate(111,166)"/>
<path d="M0 0 C1.65 0 3.3 0 5 0 C6.6415049 3.2830098 5.51888624 6.42545033 5 10 C4.01 10 3.02 10 2 10 C2 7.03 2 4.06 2 1 C1.34 0.67 0.68 0.34 0 0 Z " fill="#EFC7A8" transform="translate(153,165)"/>
<path d="M0 0 C0.99 0.33 1.98 0.66 3 1 C2.67 2.32 2.34 3.64 2 5 C2.66 5.33 3.32 5.66 4 6 C3.34 6 2.68 6 2 6 C2 7.65 2 9.3 2 11 C1.34 11 0.68 11 0 11 C0 7.37 0 3.74 0 0 Z " fill="#DE7836" transform="translate(66,166)"/>
<path d="M0 0 C0.66 0 1.32 0 2 0 C2 0.66 2 1.32 2 2 C2.66 2.33 3.32 2.66 4 3 C4 3.99 4 4.98 4 6 C3.34 6 2.68 6 2 6 C2 6.66 2 7.32 2 8 C1.34 8 0.68 8 0 8 C0 5.36 0 2.72 0 0 Z " fill="#FBF3E6" transform="translate(134,167)"/>
<path d="M0 0 C0.33 1.32 0.66 2.64 1 4 C1.66 4 2.32 4 3 4 C3 4.66 3 5.32 3 6 C2.34 6 1.68 6 1 6 C1 6.66 1 7.32 1 8 C0.34 8 -0.32 8 -1 8 C-1.125 2.25 -1.125 2.25 0 0 Z " fill="#E2884F" transform="translate(143,169)"/>
</svg>
